STARTFONT 2.1
FONT --Palmos30~En-Regular-R-Normal--11-110-72-72-P-52-FONTSPECIFIC-0
SIZE 11 72 72
FONTBOUNDINGBOX 10 11 0 -2
METRICSSET 2
STARTPROPERTIES 19
FONT_ASCENT 9
FONT_DESCENT 2
PIXEL_SIZE 11
RESOLUTION_X 72
RESOLUTION_Y 72
POINT_SIZE 110
FACE_NAME "Palm OS Standard"
FOUNDRY ""
FAMILY_NAME "Palmos30-En"
WEIGHT_NAME "Regular"
RELATIVE_WEIGHT 50
SLANT "R"
SPACING "P"
SETWIDTH_NAME "Normal"
RELATIVE_SETWIDTH 50
ADD_STYLE_NAME ""
AVERAGE_WIDTH 52
CHARSET_REGISTRY "FONTSPECIFIC"
CHARSET_ENCODING "0"
ENDPROPERTIES
CHARS 224
STARTCHAR char09
ENCODING 9
SWIDTH 182 0
DWIDTH 2 0
BBX 0 0 2 9
VVECTOR 3 9
SWIDTH1 0 -1000
DWIDTH1 0 -11
BITMAP 
ENDCHAR
STARTCHAR char20
ENCODING 32
SWIDTH 182 0
DWIDTH 2 0
BBX 0 0 2 9
VVECTOR 3 9
SWIDTH1 0 -1000
DWIDTH1 0 -11
BITMAP 
ENDCHAR
STARTCHAR char21
ENCODING 33
SWIDTH 182 0
DWIDTH 2 0
BBX 1 7 0 0
VVECTOR 0 9
SWIDTH1 0 -1000
DWIDTH1 0 -11
BITMAP 
80
80
80
80
80
00
80
ENDCHAR
STARTCHAR char22
ENCODING 34
SWIDTH 364 0
DWIDTH 4 0
BBX 3 3 0 5
VVECTOR 1 9
SWIDTH1 0 -1000
DWIDTH1 0 -11
BITMAP 
A0
A0
A0
ENDCHAR
STARTCHAR char23
ENCODING 35
SWIDTH 727 0
DWIDTH 8 0
BBX 7 7 0 0
VVECTOR 3 9
SWIDTH1 0 -1000
DWIDTH1 0 -11
BITMAP 
14
14
7E
28
FC
50
50
ENDCHAR
STARTCHAR char24
ENCODING 36
SWIDTH 545 0
DWIDTH 6 0
BBX 5 9 0 -1
VVECTOR 2 9
SWIDTH1 0 -1000
DWIDTH1 0 -11
BITMAP 
20
78
A0
A0
70
28
28
F0
20
ENDCHAR
STARTCHAR char25
ENCODING 37
SWIDTH 727 0
DWIDTH 8 0
BBX 7 7 0 0
VVECTOR 3 9
SWIDTH1 0 -1000
DWIDTH1 0 -11
BITMAP 
44
A4
A8
54
2A
4A
44
ENDCHAR
STARTCHAR char26
ENCODING 38
SWIDTH 636 0
DWIDTH 7 0
BBX 6 7 0 0
VVECTOR 3 9
SWIDTH1 0 -1000
DWIDTH1 0 -11
BITMAP 
30
48
50
20
54
88
74
ENDCHAR
STARTCHAR char27
ENCODING 39
SWIDTH 182 0
DWIDTH 2 0
BBX 1 3 0 5
VVECTOR 0 9
SWIDTH1 0 -1000
DWIDTH1 0 -11
BITMAP 
80
80
80
ENDCHAR
STARTCHAR char28
ENCODING 40
SWIDTH 364 0
DWIDTH 4 0
BBX 3 9 0 -1
VVECTOR 1 9
SWIDTH1 0 -1000
DWIDTH1 0 -11
BITMAP 
20
40
40
80
80
80
40
40
20
ENDCHAR
STARTCHAR char29
ENCODING 41
SWIDTH 364 0
DWIDTH 4 0
BBX 3 9 0 -1
VVECTOR 1 9
SWIDTH1 0 -1000
DWIDTH1 0 -11
BITMAP 
80
40
40
20
20
20
40
40
80
ENDCHAR
STARTCHAR char2A
ENCODING 42
SWIDTH 545 0
DWIDTH 6 0
BBX 5 5 0 3
VVECTOR 2 9
SWIDTH1 0 -1000
DWIDTH1 0 -11
BITMAP 
50
20
D8
20
50
ENDCHAR
STARTCHAR char2B
ENCODING 43
SWIDTH 545 0
DWIDTH 6 0
BBX 5 5 0 1
VVECTOR 2 9
SWIDTH1 0 -1000
DWIDTH1 0 -11
BITMAP 
20
20
F8
20
20
ENDCHAR
STARTCHAR char2C
ENCODING 44
SWIDTH 273 0
DWIDTH 3 0
BBX 2 2 0 -1
VVECTOR 1 9
SWIDTH1 0 -1000
DWIDTH1 0 -11
BITMAP 
40
80
ENDCHAR
STARTCHAR char2D
ENCODING 45
SWIDTH 364 0
DWIDTH 4 0
BBX 3 1 0 3
VVECTOR 1 9
SWIDTH1 0 -1000
DWIDTH1 0 -11
BITMAP 
E0
ENDCHAR
STARTCHAR char2E
ENCODING 46
SWIDTH 182 0
DWIDTH 2 0
BBX 1 1 0 0
VVECTOR 0 9
SWIDTH1 0 -1000
DWIDTH1 0 -11
BITMAP 
80
ENDCHAR
STARTCHAR char2F
ENCODING 47
SWIDTH 455 0
DWIDTH 5 0
BBX 4 7 0 0
VVECTOR 2 9
SWIDTH1 0 -1000
DWIDTH1 0 -11
BITMAP 
10
10
20
40
40
80
80
ENDCHAR
STARTCHAR char30
ENCODING 48
SWIDTH 455 0
DWIDTH 5 0
BBX 4 7 0 0
VVECTOR 2 9
SWIDTH1 0 -1000
DWIDTH1 0 -11
BITMAP 
60
90
90
90
90
90
60
ENDCHAR
STARTCHAR char31
ENCODING 49
SWIDTH 455 0
DWIDTH 5 0
BBX 2 7 1 0
VVECTOR 2 9
SWIDTH1 0 -1000
DWIDTH1 0 -11
BITMAP 
40
C0
40
40
40
40
40
ENDCHAR
STARTCHAR char32
ENCODING 50
SWIDTH 455 0
DWIDTH 5 0
BBX 4 7 0 0
VVECTOR 2 9
SWIDTH1 0 -1000
DWIDTH1 0 -11
BITMAP 
60
90
10
20
40
80
F0
ENDCHAR
STARTCHAR char33
ENCODING 51
SWIDTH 455 0
DWIDTH 5 0
BBX 4 7 0 0
VVECTOR 2 9
SWIDTH1 0 -1000
DWIDTH1 0 -11
BITMAP 
60
90
10
20
10
90
60
ENDCHAR
STARTCHAR char34
ENCODING 52
SWIDTH 455 0
DWIDTH 5 0
BBX 4 7 0 0
VVECTOR 2 9
SWIDTH1 0 -1000
DWIDTH1 0 -11
BITMAP 
10
30
50
90
F0
10
10
ENDCHAR
STARTCHAR char35
ENCODING 53
SWIDTH 455 0
DWIDTH 5 0
BBX 4 7 0 0
VVECTOR 2 9
SWIDTH1 0 -1000
DWIDTH1 0 -11
BITMAP 
F0
80
80
E0
10
10
E0
ENDCHAR
STARTCHAR char36
ENCODING 54
SWIDTH 455 0
DWIDTH 5 0
BBX 4 7 0 0
VVECTOR 2 9
SWIDTH1 0 -1000
DWIDTH1 0 -11
BITMAP 
20
40
80
E0
90
90
60
ENDCHAR
STARTCHAR char37
ENCODING 55
SWIDTH 455 0
DWIDTH 5 0
BBX 4 7 0 0
VVECTOR 2 9
SWIDTH1 0 -1000
DWIDTH1 0 -11
BITMAP 
F0
10
20
20
40
40
40
ENDCHAR
STARTCHAR char38
ENCODING 56
SWIDTH 455 0
DWIDTH 5 0
BBX 4 7 0 0
VVECTOR 2 9
SWIDTH1 0 -1000
DWIDTH1 0 -11
BITMAP 
60
90
90
60
90
90
60
ENDCHAR
STARTCHAR char39
ENCODING 57
SWIDTH 455 0
DWIDTH 5 0
BBX 4 7 0 0
VVECTOR 2 9
SWIDTH1 0 -1000
DWIDTH1 0 -11
BITMAP 
60
90
90
70
10
20
40
ENDCHAR
STARTCHAR char3A
ENCODING 58
SWIDTH 182 0
DWIDTH 2 0
BBX 1 5 0 0
VVECTOR 0 9
SWIDTH1 0 -1000
DWIDTH1 0 -11
BITMAP 
80
00
00
00
80
ENDCHAR
STARTCHAR char3B
ENCODING 59
SWIDTH 273 0
DWIDTH 3 0
BBX 2 6 0 -1
VVECTOR 1 9
SWIDTH1 0 -1000
DWIDTH1 0 -11
BITMAP 
40
00
00
00
40
80
ENDCHAR
STARTCHAR char3C
ENCODING 60
SWIDTH 545 0
DWIDTH 6 0
BBX 5 5 0 1
VVECTOR 2 9
SWIDTH1 0 -1000
DWIDTH1 0 -11
BITMAP 
08
30
C0
30
08
ENDCHAR
STARTCHAR char3D
ENCODING 61
SWIDTH 545 0
DWIDTH 6 0
BBX 5 3 0 2
VVECTOR 2 9
SWIDTH1 0 -1000
DWIDTH1 0 -11
BITMAP 
F8
00
F8
ENDCHAR
STARTCHAR char3E
ENCODING 62
SWIDTH 545 0
DWIDTH 6 0
BBX 5 5 0 1
VVECTOR 2 9
SWIDTH1 0 -1000
DWIDTH1 0 -11
BITMAP 
80
60
18
60
80
ENDCHAR
STARTCHAR char3F
ENCODING 63
SWIDTH 455 0
DWIDTH 5 0
BBX 4 7 0 0
VVECTOR 2 9
SWIDTH1 0 -1000
DWIDTH1 0 -11
BITMAP 
E0
10
20
40
40
00
40
ENDCHAR
STARTCHAR char40
ENCODING 64
SWIDTH 727 0
DWIDTH 8 0
BBX 7 7 0 -1
VVECTOR 3 9
SWIDTH1 0 -1000
DWIDTH1 0 -11
BITMAP 
38
44
9A
AA
94
40
38
ENDCHAR
STARTCHAR char41
ENCODING 65
SWIDTH 455 0
DWIDTH 5 0
BBX 4 7 0 0
VVECTOR 2 9
SWIDTH1 0 -1000
DWIDTH1 0 -11
BITMAP 
60
90
90
F0
90
90
90
ENDCHAR
STARTCHAR char42
ENCODING 66
SWIDTH 455 0
DWIDTH 5 0
BBX 4 7 0 0
VVECTOR 2 9
SWIDTH1 0 -1000
DWIDTH1 0 -11
BITMAP 
E0
90
90
E0
90
90
E0
ENDCHAR
STARTCHAR char43
ENCODING 67
SWIDTH 455 0
DWIDTH 5 0
BBX 4 7 0 0
VVECTOR 2 9
SWIDTH1 0 -1000
DWIDTH1 0 -11
BITMAP 
30
40
80
80
80
40
30
ENDCHAR
STARTCHAR char44
ENCODING 68
SWIDTH 545 0
DWIDTH 6 0
BBX 5 7 0 0
VVECTOR 2 9
SWIDTH1 0 -1000
DWIDTH1 0 -11
BITMAP 
E0
90
88
88
88
90
E0
ENDCHAR
STARTCHAR char45
ENCODING 69
SWIDTH 364 0
DWIDTH 4 0
BBX 3 7 0 0
VVECTOR 1 9
SWIDTH1 0 -1000
DWIDTH1 0 -11
BITMAP 
E0
80
80
E0
80
80
E0
ENDCHAR
STARTCHAR char46
ENCODING 70
SWIDTH 364 0
DWIDTH 4 0
BBX 3 7 0 0
VVECTOR 1 9
SWIDTH1 0 -1000
DWIDTH1 0 -11
BITMAP 
E0
80
80
E0
80
80
80
ENDCHAR
STARTCHAR char47
ENCODING 71
SWIDTH 545 0
DWIDTH 6 0
BBX 5 7 0 0
VVECTOR 2 9
SWIDTH1 0 -1000
DWIDTH1 0 -11
BITMAP 
38
40
80
98
88
48
38
ENDCHAR
STARTCHAR char48
ENCODING 72
SWIDTH 545 0
DWIDTH 6 0
BBX 5 7 0 0
VVECTOR 2 9
SWIDTH1 0 -1000
DWIDTH1 0 -11
BITMAP 
88
88
88
F8
88
88
88
ENDCHAR
STARTCHAR char49
ENCODING 73
SWIDTH 182 0
DWIDTH 2 0
BBX 1 7 0 0
VVECTOR 0 9
SWIDTH1 0 -1000
DWIDTH1 0 -11
BITMAP 
80
80
80
80
80
80
80
ENDCHAR
STARTCHAR char4A
ENCODING 74
SWIDTH 364 0
DWIDTH 4 0
BBX 3 7 0 0
VVECTOR 1 9
SWIDTH1 0 -1000
DWIDTH1 0 -11
BITMAP 
20
20
20
20
20
20
C0
ENDCHAR
STARTCHAR char4B
ENCODING 75
SWIDTH 545 0
DWIDTH 6 0
BBX 5 7 0 0
VVECTOR 2 9
SWIDTH1 0 -1000
DWIDTH1 0 -11
BITMAP 
88
90
A0
C0
A0
90
88
ENDCHAR
STARTCHAR char4C
ENCODING 76
SWIDTH 455 0
DWIDTH 5 0
BBX 4 7 0 0
VVECTOR 2 9
SWIDTH1 0 -1000
DWIDTH1 0 -11
BITMAP 
80
80
80
80
80
80
F0
ENDCHAR
STARTCHAR char4D
ENCODING 77
SWIDTH 727 0
DWIDTH 8 0
BBX 7 7 0 0
VVECTOR 3 9
SWIDTH1 0 -1000
DWIDTH1 0 -11
BITMAP 
C6
C6
AA
AA
AA
92
92
ENDCHAR
STARTCHAR char4E
ENCODING 78
SWIDTH 545 0
DWIDTH 6 0
BBX 5 7 0 0
VVECTOR 2 9
SWIDTH1 0 -1000
DWIDTH1 0 -11
BITMAP 
88
C8
A8
A8
98
88
88
ENDCHAR
STARTCHAR char4F
ENCODING 79
SWIDTH 636 0
DWIDTH 7 0
BBX 6 7 0 0
VVECTOR 3 9
SWIDTH1 0 -1000
DWIDTH1 0 -11
BITMAP 
30
48
84
84
84
48
30
ENDCHAR
STARTCHAR char50
ENCODING 80
SWIDTH 455 0
DWIDTH 5 0
BBX 4 7 0 0
VVECTOR 2 9
SWIDTH1 0 -1000
DWIDTH1 0 -11
BITMAP 
E0
90
90
E0
80
80
80
ENDCHAR
STARTCHAR char51
ENCODING 81
SWIDTH 636 0
DWIDTH 7 0
BBX 6 8 0 -1
VVECTOR 3 9
SWIDTH1 0 -1000
DWIDTH1 0 -11
BITMAP 
30
48
84
84
84
48
30
0C
ENDCHAR
STARTCHAR char52
ENCODING 82
SWIDTH 455 0
DWIDTH 5 0
BBX 4 7 0 0
VVECTOR 2 9
SWIDTH1 0 -1000
DWIDTH1 0 -11
BITMAP 
E0
90
90
E0
A0
90
90
ENDCHAR
STARTCHAR char53
ENCODING 83
SWIDTH 455 0
DWIDTH 5 0
BBX 4 7 0 0
VVECTOR 2 9
SWIDTH1 0 -1000
DWIDTH1 0 -11
BITMAP 
70
80
80
60
10
10
E0
ENDCHAR
STARTCHAR char54
ENCODING 84
SWIDTH 545 0
DWIDTH 6 0
BBX 5 7 0 0
VVECTOR 2 9
SWIDTH1 0 -1000
DWIDTH1 0 -11
BITMAP 
F8
20
20
20
20
20
20
ENDCHAR
STARTCHAR char55
ENCODING 85
SWIDTH 545 0
DWIDTH 6 0
BBX 5 7 0 0
VVECTOR 2 9
SWIDTH1 0 -1000
DWIDTH1 0 -11
BITMAP 
88
88
88
88
88
88
70
ENDCHAR
STARTCHAR char56
ENCODING 86
SWIDTH 545 0
DWIDTH 6 0
BBX 5 7 0 0
VVECTOR 2 9
SWIDTH1 0 -1000
DWIDTH1 0 -11
BITMAP 
88
88
88
50
50
20
20
ENDCHAR
STARTCHAR char57
ENCODING 87
SWIDTH 727 0
DWIDTH 8 0
BBX 7 7 0 0
VVECTOR 3 9
SWIDTH1 0 -1000
DWIDTH1 0 -11
BITMAP 
92
92
AA
AA
44
44
44
ENDCHAR
STARTCHAR char58
ENCODING 88
SWIDTH 545 0
DWIDTH 6 0
BBX 5 7 0 0
VVECTOR 2 9
SWIDTH1 0 -1000
DWIDTH1 0 -11
BITMAP 
88
88
50
20
50
88
88
ENDCHAR
STARTCHAR char59
ENCODING 89
SWIDTH 545 0
DWIDTH 6 0
BBX 5 7 0 0
VVECTOR 2 9
SWIDTH1 0 -1000
DWIDTH1 0 -11
BITMAP 
88
88
50
20
20
20
20
ENDCHAR
STARTCHAR char5A
ENCODING 90
SWIDTH 545 0
DWIDTH 6 0
BBX 5 7 0 0
VVECTOR 2 9
SWIDTH1 0 -1000
DWIDTH1 0 -11
BITMAP 
F8
08
10
20
40
80
F8
ENDCHAR
STARTCHAR char5B
ENCODING 91
SWIDTH 273 0
DWIDTH 3 0
BBX 2 9 0 -1
VVECTOR 1 9
SWIDTH1 0 -1000
DWIDTH1 0 -11
BITMAP 
C0
80
80
80
80
80
80
80
C0
ENDCHAR
STARTCHAR char5C
ENCODING 92
SWIDTH 455 0
DWIDTH 5 0
BBX 4 7 0 0
VVECTOR 2 9
SWIDTH1 0 -1000
DWIDTH1 0 -11
BITMAP 
80
80
40
20
20
10
10
ENDCHAR
STARTCHAR char5D
ENCODING 93
SWIDTH 273 0
DWIDTH 3 0
BBX 2 9 0 -1
VVECTOR 1 9
SWIDTH1 0 -1000
DWIDTH1 0 -11
BITMAP 
C0
40
40
40
40
40
40
40
C0
ENDCHAR
STARTCHAR char5E
ENCODING 94
SWIDTH 545 0
DWIDTH 6 0
BBX 5 5 0 2
VVECTOR 2 9
SWIDTH1 0 -1000
DWIDTH1 0 -11
BITMAP 
20
20
50
50
88
ENDCHAR
STARTCHAR char5F
ENCODING 95
SWIDTH 364 0
DWIDTH 4 0
BBX 4 1 0 -1
VVECTOR 2 9
SWIDTH1 0 -1000
DWIDTH1 0 -11
BITMAP 
F0
ENDCHAR
STARTCHAR char60
ENCODING 96
SWIDTH 273 0
DWIDTH 3 0
BBX 2 2 0 6
VVECTOR 1 9
SWIDTH1 0 -1000
DWIDTH1 0 -11
BITMAP 
80
40
ENDCHAR
STARTCHAR char61
ENCODING 97
SWIDTH 455 0
DWIDTH 5 0
BBX 4 5 0 0
VVECTOR 2 9
SWIDTH1 0 -1000
DWIDTH1 0 -11
BITMAP 
70
90
90
90
70
ENDCHAR
STARTCHAR char62
ENCODING 98
SWIDTH 455 0
DWIDTH 5 0
BBX 4 7 0 0
VVECTOR 2 9
SWIDTH1 0 -1000
DWIDTH1 0 -11
BITMAP 
80
80
E0
90
90
90
E0
ENDCHAR
STARTCHAR char63
ENCODING 99
SWIDTH 364 0
DWIDTH 4 0
BBX 3 5 0 0
VVECTOR 1 9
SWIDTH1 0 -1000
DWIDTH1 0 -11
BITMAP 
60
80
80
80
60
ENDCHAR
STARTCHAR char64
ENCODING 100
SWIDTH 455 0
DWIDTH 5 0
BBX 4 7 0 0
VVECTOR 2 9
SWIDTH1 0 -1000
DWIDTH1 0 -11
BITMAP 
10
10
70
90
90
90
70
ENDCHAR
STARTCHAR char65
ENCODING 101
SWIDTH 455 0
DWIDTH 5 0
BBX 4 5 0 0
VVECTOR 2 9
SWIDTH1 0 -1000
DWIDTH1 0 -11
BITMAP 
60
90
F0
80
70
ENDCHAR
STARTCHAR char66
ENCODING 102
SWIDTH 364 0
DWIDTH 4 0
BBX 4 7 0 0
VVECTOR 2 9
SWIDTH1 0 -1000
DWIDTH1 0 -11
BITMAP 
30
40
E0
40
40
40
40
ENDCHAR
STARTCHAR char67
ENCODING 103
SWIDTH 455 0
DWIDTH 5 0
BBX 4 7 0 -2
VVECTOR 2 9
SWIDTH1 0 -1000
DWIDTH1 0 -11
BITMAP 
70
90
90
90
70
10
60
ENDCHAR
STARTCHAR char68
ENCODING 104
SWIDTH 455 0
DWIDTH 5 0
BBX 4 7 0 0
VVECTOR 2 9
SWIDTH1 0 -1000
DWIDTH1 0 -11
BITMAP 
80
80
E0
90
90
90
90
ENDCHAR
STARTCHAR char69
ENCODING 105
SWIDTH 182 0
DWIDTH 2 0
BBX 1 7 0 0
VVECTOR 0 9
SWIDTH1 0 -1000
DWIDTH1 0 -11
BITMAP 
80
00
80
80
80
80
80
ENDCHAR
STARTCHAR char6A
ENCODING 106
SWIDTH 273 0
DWIDTH 3 0
BBX 2 8 0 -1
VVECTOR 1 9
SWIDTH1 0 -1000
DWIDTH1 0 -11
BITMAP 
40
00
40
40
40
40
40
80
ENDCHAR
STARTCHAR char6B
ENCODING 107
SWIDTH 455 0
DWIDTH 5 0
BBX 4 7 0 0
VVECTOR 2 9
SWIDTH1 0 -1000
DWIDTH1 0 -11
BITMAP 
80
80
90
A0
C0
A0
90
ENDCHAR
STARTCHAR char6C
ENCODING 108
SWIDTH 182 0
DWIDTH 2 0
BBX 1 7 0 0
VVECTOR 0 9
SWIDTH1 0 -1000
DWIDTH1 0 -11
BITMAP 
80
80
80
80
80
80
80
ENDCHAR
STARTCHAR char6D
ENCODING 109
SWIDTH 727 0
DWIDTH 8 0
BBX 7 5 0 0
VVECTOR 3 9
SWIDTH1 0 -1000
DWIDTH1 0 -11
BITMAP 
EC
92
92
92
92
ENDCHAR
STARTCHAR char6E
ENCODING 110
SWIDTH 455 0
DWIDTH 5 0
BBX 4 5 0 0
VVECTOR 2 9
SWIDTH1 0 -1000
DWIDTH1 0 -11
BITMAP 
E0
90
90
90
90
ENDCHAR
STARTCHAR char6F
ENCODING 111
SWIDTH 455 0
DWIDTH 5 0
BBX 4 5 0 0
VVECTOR 2 9
SWIDTH1 0 -1000
DWIDTH1 0 -11
BITMAP 
60
90
90
90
60
ENDCHAR
STARTCHAR char70
ENCODING 112
SWIDTH 455 0
DWIDTH 5 0
BBX 4 7 0 -2
VVECTOR 2 9
SWIDTH1 0 -1000
DWIDTH1 0 -11
BITMAP 
E0
90
90
90
E0
80
80
ENDCHAR
STARTCHAR char71
ENCODING 113
SWIDTH 455 0
DWIDTH 5 0
BBX 4 7 0 -2
VVECTOR 2 9
SWIDTH1 0 -1000
DWIDTH1 0 -11
BITMAP 
70
90
90
90
70
10
10
ENDCHAR
STARTCHAR char72
ENCODING 114
SWIDTH 364 0
DWIDTH 4 0
BBX 3 5 0 0
VVECTOR 1 9
SWIDTH1 0 -1000
DWIDTH1 0 -11
BITMAP 
A0
C0
80
80
80
ENDCHAR
STARTCHAR char73
ENCODING 115
SWIDTH 364 0
DWIDTH 4 0
BBX 3 5 0 0
VVECTOR 1 9
SWIDTH1 0 -1000
DWIDTH1 0 -11
BITMAP 
60
80
40
20
C0
ENDCHAR
STARTCHAR char74
ENCODING 116
SWIDTH 364 0
DWIDTH 4 0
BBX 3 6 0 0
VVECTOR 1 9
SWIDTH1 0 -1000
DWIDTH1 0 -11
BITMAP 
40
E0
40
40
40
20
ENDCHAR
STARTCHAR char75
ENCODING 117
SWIDTH 455 0
DWIDTH 5 0
BBX 4 5 0 0
VVECTOR 2 9
SWIDTH1 0 -1000
DWIDTH1 0 -11
BITMAP 
90
90
90
90
70
ENDCHAR
STARTCHAR char76
ENCODING 118
SWIDTH 455 0
DWIDTH 5 0
BBX 5 5 0 0
VVECTOR 3 9
SWIDTH1 0 -1000
DWIDTH1 0 -11
BITMAP 
88
50
50
20
20
ENDCHAR
STARTCHAR char77
ENCODING 119
SWIDTH 545 0
DWIDTH 6 0
BBX 5 5 0 0
VVECTOR 2 9
SWIDTH1 0 -1000
DWIDTH1 0 -11
BITMAP 
A8
A8
A8
50
50
ENDCHAR
STARTCHAR char78
ENCODING 120
SWIDTH 545 0
DWIDTH 6 0
BBX 5 5 0 0
VVECTOR 2 9
SWIDTH1 0 -1000
DWIDTH1 0 -11
BITMAP 
88
50
20
50
88
ENDCHAR
STARTCHAR char79
ENCODING 121
SWIDTH 545 0
DWIDTH 6 0
BBX 5 7 0 -2
VVECTOR 2 9
SWIDTH1 0 -1000
DWIDTH1 0 -11
BITMAP 
88
50
50
20
20
40
80
ENDCHAR
STARTCHAR char7A
ENCODING 122
SWIDTH 364 0
DWIDTH 4 0
BBX 3 5 0 0
VVECTOR 1 9
SWIDTH1 0 -1000
DWIDTH1 0 -11
BITMAP 
E0
20
40
80
E0
ENDCHAR
STARTCHAR char7B
ENCODING 123
SWIDTH 364 0
DWIDTH 4 0
BBX 3 9 0 -1
VVECTOR 1 9
SWIDTH1 0 -1000
DWIDTH1 0 -11
BITMAP 
20
40
40
40
80
40
40
40
20
ENDCHAR
STARTCHAR char7C
ENCODING 124
SWIDTH 182 0
DWIDTH 2 0
BBX 1 9 0 -1
VVECTOR 0 9
SWIDTH1 0 -1000
DWIDTH1 0 -11
BITMAP 
80
80
80
80
80
80
80
80
80
ENDCHAR
STARTCHAR char7D
ENCODING 125
SWIDTH 364 0
DWIDTH 4 0
BBX 3 9 0 -1
VVECTOR 1 9
SWIDTH1 0 -1000
DWIDTH1 0 -11
BITMAP 
80
40
40
40
20
40
40
40
80
ENDCHAR
STARTCHAR char7E
ENCODING 126
SWIDTH 636 0
DWIDTH 7 0
BBX 6 2 0 2
VVECTOR 3 9
SWIDTH1 0 -1000
DWIDTH1 0 -11
BITMAP 
64
98
ENDCHAR
STARTCHAR char80
ENCODING 128
SWIDTH 455 0
DWIDTH 5 0
BBX 0 0 5 9
VVECTOR 8 9
SWIDTH1 0 -1000
DWIDTH1 0 -11
BITMAP 
ENDCHAR
STARTCHAR char82
ENCODING 130
SWIDTH 273 0
DWIDTH 3 0
BBX 2 2 0 -1
VVECTOR 1 9
SWIDTH1 0 -1000
DWIDTH1 0 -11
BITMAP 
40
80
ENDCHAR
STARTCHAR char83
ENCODING 131
SWIDTH 727 0
DWIDTH 8 0
BBX 7 8 0 -1
VVECTOR 3 9
SWIDTH1 0 -1000
DWIDTH1 0 -11
BITMAP 
06
08
3C
10
10
20
20
C0
ENDCHAR
STARTCHAR char84
ENCODING 132
SWIDTH 455 0
DWIDTH 5 0
BBX 4 2 0 -1
VVECTOR 2 9
SWIDTH1 0 -1000
DWIDTH1 0 -11
BITMAP 
50
A0
ENDCHAR
STARTCHAR char85
ENCODING 133
SWIDTH 545 0
DWIDTH 6 0
BBX 5 1 0 0
VVECTOR 2 9
SWIDTH1 0 -1000
DWIDTH1 0 -11
BITMAP 
A8
ENDCHAR
STARTCHAR char86
ENCODING 134
SWIDTH 545 0
DWIDTH 6 0
BBX 5 9 0 -2
VVECTOR 2 9
SWIDTH1 0 -1000
DWIDTH1 0 -11
BITMAP 
20
20
F8
20
20
20
20
20
20
ENDCHAR
STARTCHAR char87
ENCODING 135
SWIDTH 545 0
DWIDTH 6 0
BBX 5 9 0 -2
VVECTOR 2 9
SWIDTH1 0 -1000
DWIDTH1 0 -11
BITMAP 
20
20
F8
20
20
20
F8
20
20
ENDCHAR
STARTCHAR char88
ENCODING 136
SWIDTH 364 0
DWIDTH 4 0
BBX 3 2 0 5
VVECTOR 1 9
SWIDTH1 0 -1000
DWIDTH1 0 -11
BITMAP 
40
A0
ENDCHAR
STARTCHAR char89
ENCODING 137
SWIDTH 1000 0
DWIDTH 11 0
BBX 10 7 0 0
VVECTOR 5 9
SWIDTH1 0 -1000
DWIDTH1 0 -11
BITMAP 
4400
A400
A800
5480
2B40
4B40
4480
ENDCHAR
STARTCHAR char8A
ENCODING 138
SWIDTH 455 0
DWIDTH 5 0
BBX 4 9 0 0
VVECTOR 2 9
SWIDTH1 0 -1000
DWIDTH1 0 -11
BITMAP 
50
20
00
70
80
60
10
10
E0
ENDCHAR
STARTCHAR char8B
ENCODING 139
SWIDTH 364 0
DWIDTH 4 0
BBX 3 5 0 0
VVECTOR 1 9
SWIDTH1 0 -1000
DWIDTH1 0 -11
BITMAP 
20
40
80
40
20
ENDCHAR
STARTCHAR char8C
ENCODING 140
SWIDTH 727 0
DWIDTH 8 0
BBX 7 7 0 0
VVECTOR 3 9
SWIDTH1 0 -1000
DWIDTH1 0 -11
BITMAP 
3E
48
88
8E
88
48
3E
ENDCHAR
STARTCHAR char8D
ENCODING 141
SWIDTH 909 0
DWIDTH 10 0
BBX 9 9 0 -1
VVECTOR 4 9
SWIDTH1 0 -1000
DWIDTH1 0 -11
BITMAP 
0800
1400
2200
4100
8080
4100
2200
1400
0800
ENDCHAR
STARTCHAR char8E
ENCODING 142
SWIDTH 909 0
DWIDTH 10 0
BBX 9 10 0 -1
VVECTOR 4 9
SWIDTH1 0 -1000
DWIDTH1 0 -11
BITMAP 
1C00
3E00
3E00
5D00
FF80
FF80
FF80
6B00
1C00
3E00
ENDCHAR
STARTCHAR char8F
ENCODING 143
SWIDTH 909 0
DWIDTH 10 0
BBX 9 9 0 -1
VVECTOR 4 9
SWIDTH1 0 -1000
DWIDTH1 0 -11
BITMAP 
7700
9C80
8880
8080
8080
4100
2200
1400
0800
ENDCHAR
STARTCHAR char90
ENCODING 144
SWIDTH 909 0
DWIDTH 10 0
BBX 9 10 0 -1
VVECTOR 4 9
SWIDTH1 0 -1000
DWIDTH1 0 -11
BITMAP 
0800
1C00
3E00
7F00
FF80
FF80
FF80
6B00
1C00
3E00
ENDCHAR
STARTCHAR char91
ENCODING 145
SWIDTH 273 0
DWIDTH 3 0
BBX 2 2 0 5
VVECTOR 1 9
SWIDTH1 0 -1000
DWIDTH1 0 -11
BITMAP 
80
40
ENDCHAR
STARTCHAR char92
ENCODING 146
SWIDTH 273 0
DWIDTH 3 0
BBX 2 2 0 5
VVECTOR 1 9
SWIDTH1 0 -1000
DWIDTH1 0 -11
BITMAP 
40
80
ENDCHAR
STARTCHAR char93
ENCODING 147
SWIDTH 455 0
DWIDTH 5 0
BBX 4 2 0 5
VVECTOR 2 9
SWIDTH1 0 -1000
DWIDTH1 0 -11
BITMAP 
A0
50
ENDCHAR
STARTCHAR char94
ENCODING 148
SWIDTH 455 0
DWIDTH 5 0
BBX 4 2 0 5
VVECTOR 2 9
SWIDTH1 0 -1000
DWIDTH1 0 -11
BITMAP 
50
A0
ENDCHAR
STARTCHAR char95
ENCODING 149
SWIDTH 364 0
DWIDTH 4 0
BBX 3 3 0 2
VVECTOR 1 9
SWIDTH1 0 -1000
DWIDTH1 0 -11
BITMAP 
E0
E0
E0
ENDCHAR
STARTCHAR char96
ENCODING 150
SWIDTH 364 0
DWIDTH 4 0
BBX 4 1 0 3
VVECTOR 2 9
SWIDTH1 0 -1000
DWIDTH1 0 -11
BITMAP 
F0
ENDCHAR
STARTCHAR char97
ENCODING 151
SWIDTH 636 0
DWIDTH 7 0
BBX 7 1 0 3
VVECTOR 4 9
SWIDTH1 0 -1000
DWIDTH1 0 -11
BITMAP 
FE
ENDCHAR
STARTCHAR char98
ENCODING 152
SWIDTH 636 0
DWIDTH 7 0
BBX 6 2 0 4
VVECTOR 3 9
SWIDTH1 0 -1000
DWIDTH1 0 -11
BITMAP 
64
98
ENDCHAR
STARTCHAR char99
ENCODING 153
SWIDTH 909 0
DWIDTH 10 0
BBX 9 3 0 4
VVECTOR 4 9
SWIDTH1 0 -1000
DWIDTH1 0 -11
BITMAP 
E880
4D80
4A80
ENDCHAR
STARTCHAR char9A
ENCODING 154
SWIDTH 364 0
DWIDTH 4 0
BBX 3 8 0 0
VVECTOR 1 9
SWIDTH1 0 -1000
DWIDTH1 0 -11
BITMAP 
A0
40
00
60
80
40
20
C0
ENDCHAR
STARTCHAR char9B
ENCODING 155
SWIDTH 364 0
DWIDTH 4 0
BBX 3 5 0 0
VVECTOR 1 9
SWIDTH1 0 -1000
DWIDTH1 0 -11
BITMAP 
80
40
20
40
80
ENDCHAR
STARTCHAR char9C
ENCODING 156
SWIDTH 727 0
DWIDTH 8 0
BBX 7 5 0 0
VVECTOR 3 9
SWIDTH1 0 -1000
DWIDTH1 0 -11
BITMAP 
6C
92
9E
90
6E
ENDCHAR
STARTCHAR char9D
ENCODING 157
SWIDTH 727 0
DWIDTH 8 0
BBX 7 7 0 -1
VVECTOR 3 9
SWIDTH1 0 -1000
DWIDTH1 0 -11
BITMAP 
02
04
08
10
20
C0
C0
ENDCHAR
STARTCHAR char9E
ENCODING 158
SWIDTH 727 0
DWIDTH 8 0
BBX 7 9 0 -1
VVECTOR 3 9
SWIDTH1 0 -1000
DWIDTH1 0 -11
BITMAP 
10
28
28
28
28
10
28
C4
C2
ENDCHAR
STARTCHAR char9F
ENCODING 159
SWIDTH 545 0
DWIDTH 6 0
BBX 5 8 0 0
VVECTOR 2 9
SWIDTH1 0 -1000
DWIDTH1 0 -11
BITMAP 
50
00
88
88
50
20
20
20
ENDCHAR
STARTCHAR charA0
ENCODING 160
SWIDTH 182 0
DWIDTH 2 0
BBX 0 0 2 9
VVECTOR 3 9
SWIDTH1 0 -1000
DWIDTH1 0 -11
BITMAP 
ENDCHAR
STARTCHAR charA1
ENCODING 161
SWIDTH 182 0
DWIDTH 2 0
BBX 1 7 0 -2
VVECTOR 0 9
SWIDTH1 0 -1000
DWIDTH1 0 -11
BITMAP 
80
00
80
80
80
80
80
ENDCHAR
STARTCHAR charA2
ENCODING 162
SWIDTH 545 0
DWIDTH 6 0
BBX 5 8 0 -1
VVECTOR 2 9
SWIDTH1 0 -1000
DWIDTH1 0 -11
BITMAP 
20
70
A8
A0
A0
A8
70
20
ENDCHAR
STARTCHAR charA3
ENCODING 163
SWIDTH 545 0
DWIDTH 6 0
BBX 5 7 0 0
VVECTOR 2 9
SWIDTH1 0 -1000
DWIDTH1 0 -11
BITMAP 
38
40
40
F0
40
40
F8
ENDCHAR
STARTCHAR charA4
ENCODING 164
SWIDTH 727 0
DWIDTH 8 0
BBX 7 7 0 0
VVECTOR 3 9
SWIDTH1 0 -1000
DWIDTH1 0 -11
BITMAP 
92
6C
44
82
44
6C
92
ENDCHAR
STARTCHAR charA5
ENCODING 165
SWIDTH 545 0
DWIDTH 6 0
BBX 5 7 0 0
VVECTOR 2 9
SWIDTH1 0 -1000
DWIDTH1 0 -11
BITMAP 
88
50
F8
20
F8
20
20
ENDCHAR
STARTCHAR charA6
ENCODING 166
SWIDTH 182 0
DWIDTH 2 0
BBX 1 9 0 -2
VVECTOR 0 9
SWIDTH1 0 -1000
DWIDTH1 0 -11
BITMAP 
80
80
80
80
00
80
80
80
80
ENDCHAR
STARTCHAR charA7
ENCODING 167
SWIDTH 455 0
DWIDTH 5 0
BBX 4 9 0 -1
VVECTOR 2 9
SWIDTH1 0 -1000
DWIDTH1 0 -11
BITMAP 
60
90
40
A0
90
50
20
90
60
ENDCHAR
STARTCHAR charA8
ENCODING 168
SWIDTH 364 0
DWIDTH 4 0
BBX 3 1 0 5
VVECTOR 1 9
SWIDTH1 0 -1000
DWIDTH1 0 -11
BITMAP 
A0
ENDCHAR
STARTCHAR charA9
ENCODING 169
SWIDTH 727 0
DWIDTH 8 0
BBX 7 7 0 -1
VVECTOR 3 9
SWIDTH1 0 -1000
DWIDTH1 0 -11
BITMAP 
38
44
BA
A2
BA
44
38
ENDCHAR
STARTCHAR charAA
ENCODING 170
SWIDTH 455 0
DWIDTH 5 0
BBX 4 3 0 4
VVECTOR 2 9
SWIDTH1 0 -1000
DWIDTH1 0 -11
BITMAP 
70
90
70
ENDCHAR
STARTCHAR charAB
ENCODING 171
SWIDTH 545 0
DWIDTH 6 0
BBX 5 5 0 0
VVECTOR 2 9
SWIDTH1 0 -1000
DWIDTH1 0 -11
BITMAP 
28
50
A0
50
28
ENDCHAR
STARTCHAR charAC
ENCODING 172
SWIDTH 545 0
DWIDTH 6 0
BBX 5 3 0 1
VVECTOR 2 9
SWIDTH1 0 -1000
DWIDTH1 0 -11
BITMAP 
F8
08
08
ENDCHAR
STARTCHAR charAD
ENCODING 173
SWIDTH 364 0
DWIDTH 4 0
BBX 3 1 0 3
VVECTOR 1 9
SWIDTH1 0 -1000
DWIDTH1 0 -11
BITMAP 
E0
ENDCHAR
STARTCHAR charAE
ENCODING 174
SWIDTH 727 0
DWIDTH 8 0
BBX 7 7 0 -1
VVECTOR 3 9
SWIDTH1 0 -1000
DWIDTH1 0 -11
BITMAP 
38
44
BA
B2
AA
44
38
ENDCHAR
STARTCHAR charAF
ENCODING 175
SWIDTH 545 0
DWIDTH 6 0
BBX 5 1 0 7
VVECTOR 2 9
SWIDTH1 0 -1000
DWIDTH1 0 -11
BITMAP 
F8
ENDCHAR
STARTCHAR charB0
ENCODING 176
SWIDTH 455 0
DWIDTH 5 0
BBX 4 4 0 4
VVECTOR 2 9
SWIDTH1 0 -1000
DWIDTH1 0 -11
BITMAP 
60
90
90
60
ENDCHAR
STARTCHAR charB1
ENCODING 177
SWIDTH 545 0
DWIDTH 6 0
BBX 5 6 0 1
VVECTOR 2 9
SWIDTH1 0 -1000
DWIDTH1 0 -11
BITMAP 
20
20
F8
20
20
F8
ENDCHAR
STARTCHAR charB2
ENCODING 178
SWIDTH 364 0
DWIDTH 4 0
BBX 3 4 0 3
VVECTOR 1 9
SWIDTH1 0 -1000
DWIDTH1 0 -11
BITMAP 
E0
20
40
E0
ENDCHAR
STARTCHAR charB3
ENCODING 179
SWIDTH 364 0
DWIDTH 4 0
BBX 3 4 0 3
VVECTOR 1 9
SWIDTH1 0 -1000
DWIDTH1 0 -11
BITMAP 
E0
40
20
E0
ENDCHAR
STARTCHAR charB4
ENCODING 180
SWIDTH 273 0
DWIDTH 3 0
BBX 2 2 0 6
VVECTOR 1 9
SWIDTH1 0 -1000
DWIDTH1 0 -11
BITMAP 
40
80
ENDCHAR
STARTCHAR charB5
ENCODING 181
SWIDTH 455 0
DWIDTH 5 0
BBX 4 7 0 -2
VVECTOR 2 9
SWIDTH1 0 -1000
DWIDTH1 0 -11
BITMAP 
90
90
90
90
F0
80
80
ENDCHAR
STARTCHAR charB6
ENCODING 182
SWIDTH 545 0
DWIDTH 6 0
BBX 5 7 0 0
VVECTOR 2 9
SWIDTH1 0 -1000
DWIDTH1 0 -11
BITMAP 
78
E8
E8
68
28
28
28
ENDCHAR
STARTCHAR charB7
ENCODING 183
SWIDTH 182 0
DWIDTH 2 0
BBX 1 1 0 3
VVECTOR 0 9
SWIDTH1 0 -1000
DWIDTH1 0 -11
BITMAP 
80
ENDCHAR
STARTCHAR charB8
ENCODING 184
SWIDTH 364 0
DWIDTH 4 0
BBX 3 3 0 -2
VVECTOR 1 9
SWIDTH1 0 -1000
DWIDTH1 0 -11
BITMAP 
40
20
C0
ENDCHAR
STARTCHAR charB9
ENCODING 185
SWIDTH 182 0
DWIDTH 2 0
BBX 1 3 0 4
VVECTOR 0 9
SWIDTH1 0 -1000
DWIDTH1 0 -11
BITMAP 
80
80
80
ENDCHAR
STARTCHAR charBA
ENCODING 186
SWIDTH 455 0
DWIDTH 5 0
BBX 4 5 0 2
VVECTOR 2 9
SWIDTH1 0 -1000
DWIDTH1 0 -11
BITMAP 
60
90
60
00
F0
ENDCHAR
STARTCHAR charBB
ENCODING 187
SWIDTH 545 0
DWIDTH 6 0
BBX 5 5 0 0
VVECTOR 2 9
SWIDTH1 0 -1000
DWIDTH1 0 -11
BITMAP 
A0
50
28
50
A0
ENDCHAR
STARTCHAR charBC
ENCODING 188
SWIDTH 727 0
DWIDTH 8 0
BBX 7 8 0 0
VVECTOR 3 9
SWIDTH1 0 -1000
DWIDTH1 0 -11
BITMAP 
80
84
88
90
24
4C
9E
04
ENDCHAR
STARTCHAR charBD
ENCODING 189
SWIDTH 727 0
DWIDTH 8 0
BBX 7 8 0 0
VVECTOR 3 9
SWIDTH1 0 -1000
DWIDTH1 0 -11
BITMAP 
80
84
88
90
2E
42
84
0E
ENDCHAR
STARTCHAR charBE
ENCODING 190
SWIDTH 727 0
DWIDTH 8 0
BBX 7 8 0 0
VVECTOR 3 9
SWIDTH1 0 -1000
DWIDTH1 0 -11
BITMAP 
E0
42
24
E8
12
26
4E
02
ENDCHAR
STARTCHAR charBF
ENCODING 191
SWIDTH 455 0
DWIDTH 5 0
BBX 4 7 0 0
VVECTOR 2 9
SWIDTH1 0 -1000
DWIDTH1 0 -11
BITMAP 
20
00
20
20
40
80
70
ENDCHAR
STARTCHAR charC0
ENCODING 192
SWIDTH 455 0
DWIDTH 5 0
BBX 4 9 0 0
VVECTOR 2 9
SWIDTH1 0 -1000
DWIDTH1 0 -11
BITMAP 
40
20
00
60
90
F0
90
90
90
ENDCHAR
STARTCHAR charC1
ENCODING 193
SWIDTH 455 0
DWIDTH 5 0
BBX 4 9 0 0
VVECTOR 2 9
SWIDTH1 0 -1000
DWIDTH1 0 -11
BITMAP 
20
40
00
60
90
F0
90
90
90
ENDCHAR
STARTCHAR charC2
ENCODING 194
SWIDTH 455 0
DWIDTH 5 0
BBX 4 9 0 0
VVECTOR 2 9
SWIDTH1 0 -1000
DWIDTH1 0 -11
BITMAP 
20
50
00
60
90
F0
90
90
90
ENDCHAR
STARTCHAR charC3
ENCODING 195
SWIDTH 455 0
DWIDTH 5 0
BBX 4 9 0 0
VVECTOR 2 9
SWIDTH1 0 -1000
DWIDTH1 0 -11
BITMAP 
50
A0
00
60
90
F0
90
90
90
ENDCHAR
STARTCHAR charC4
ENCODING 196
SWIDTH 455 0
DWIDTH 5 0
BBX 4 8 0 0
VVECTOR 2 9
SWIDTH1 0 -1000
DWIDTH1 0 -11
BITMAP 
50
00
60
90
F0
90
90
90
ENDCHAR
STARTCHAR charC5
ENCODING 197
SWIDTH 455 0
DWIDTH 5 0
BBX 4 9 0 0
VVECTOR 2 9
SWIDTH1 0 -1000
DWIDTH1 0 -11
BITMAP 
60
90
60
60
90
F0
90
90
90
ENDCHAR
STARTCHAR charC6
ENCODING 198
SWIDTH 636 0
DWIDTH 7 0
BBX 6 7 0 0
VVECTOR 3 9
SWIDTH1 0 -1000
DWIDTH1 0 -11
BITMAP 
7C
90
90
FC
90
90
9C
ENDCHAR
STARTCHAR charC7
ENCODING 199
SWIDTH 455 0
DWIDTH 5 0
BBX 4 9 0 -2
VVECTOR 2 9
SWIDTH1 0 -1000
DWIDTH1 0 -11
BITMAP 
30
40
80
80
80
40
30
20
40
ENDCHAR
STARTCHAR charC8
ENCODING 200
SWIDTH 364 0
DWIDTH 4 0
BBX 3 9 0 0
VVECTOR 1 9
SWIDTH1 0 -1000
DWIDTH1 0 -11
BITMAP 
80
40
00
E0
80
E0
80
80
E0
ENDCHAR
STARTCHAR charC9
ENCODING 201
SWIDTH 364 0
DWIDTH 4 0
BBX 3 9 0 0
VVECTOR 1 9
SWIDTH1 0 -1000
DWIDTH1 0 -11
BITMAP 
40
80
00
E0
80
E0
80
80
E0
ENDCHAR
STARTCHAR charCA
ENCODING 202
SWIDTH 364 0
DWIDTH 4 0
BBX 3 9 0 0
VVECTOR 1 9
SWIDTH1 0 -1000
DWIDTH1 0 -11
BITMAP 
40
A0
00
E0
80
E0
80
80
E0
ENDCHAR
STARTCHAR charCB
ENCODING 203
SWIDTH 364 0
DWIDTH 4 0
BBX 3 8 0 0
VVECTOR 1 9
SWIDTH1 0 -1000
DWIDTH1 0 -11
BITMAP 
A0
00
E0
80
E0
80
80
E0
ENDCHAR
STARTCHAR charCC
ENCODING 204
SWIDTH 273 0
DWIDTH 3 0
BBX 2 9 0 0
VVECTOR 1 9
SWIDTH1 0 -1000
DWIDTH1 0 -11
BITMAP 
80
40
00
40
40
40
40
40
40
ENDCHAR
STARTCHAR charCD
ENCODING 205
SWIDTH 182 0
DWIDTH 2 0
BBX 2 9 0 0
VVECTOR 1 9
SWIDTH1 0 -1000
DWIDTH1 0 -11
BITMAP 
40
80
00
80
80
80
80
80
80
ENDCHAR
STARTCHAR charCE
ENCODING 206
SWIDTH 273 0
DWIDTH 3 0
BBX 3 9 0 0
VVECTOR 2 9
SWIDTH1 0 -1000
DWIDTH1 0 -11
BITMAP 
40
A0
00
40
40
40
40
40
40
ENDCHAR
STARTCHAR charCF
ENCODING 207
SWIDTH 273 0
DWIDTH 3 0
BBX 3 9 0 0
VVECTOR 2 9
SWIDTH1 0 -1000
DWIDTH1 0 -11
BITMAP 
A0
00
00
40
40
40
40
40
40
ENDCHAR
STARTCHAR charD0
ENCODING 208
SWIDTH 636 0
DWIDTH 7 0
BBX 6 7 0 0
VVECTOR 3 9
SWIDTH1 0 -1000
DWIDTH1 0 -11
BITMAP 
70
48
44
E4
44
48
70
ENDCHAR
STARTCHAR charD1
ENCODING 209
SWIDTH 545 0
DWIDTH 6 0
BBX 5 9 0 0
VVECTOR 2 9
SWIDTH1 0 -1000
DWIDTH1 0 -11
BITMAP 
28
50
00
88
C8
A8
A8
98
88
ENDCHAR
STARTCHAR charD2
ENCODING 210
SWIDTH 636 0
DWIDTH 7 0
BBX 6 9 0 0
VVECTOR 3 9
SWIDTH1 0 -1000
DWIDTH1 0 -11
BITMAP 
20
10
00
30
48
84
84
48
30
ENDCHAR
STARTCHAR charD3
ENCODING 211
SWIDTH 636 0
DWIDTH 7 0
BBX 6 9 0 0
VVECTOR 3 9
SWIDTH1 0 -1000
DWIDTH1 0 -11
BITMAP 
10
20
00
30
48
84
84
48
30
ENDCHAR
STARTCHAR charD4
ENCODING 212
SWIDTH 636 0
DWIDTH 7 0
BBX 6 9 0 0
VVECTOR 3 9
SWIDTH1 0 -1000
DWIDTH1 0 -11
BITMAP 
10
28
00
30
48
84
84
48
30
ENDCHAR
STARTCHAR charD5
ENCODING 213
SWIDTH 636 0
DWIDTH 7 0
BBX 6 9 0 0
VVECTOR 3 9
SWIDTH1 0 -1000
DWIDTH1 0 -11
BITMAP 
28
50
00
30
48
84
84
48
30
ENDCHAR
STARTCHAR charD6
ENCODING 214
SWIDTH 636 0
DWIDTH 7 0
BBX 6 8 0 0
VVECTOR 3 9
SWIDTH1 0 -1000
DWIDTH1 0 -11
BITMAP 
28
00
30
48
84
84
48
30
ENDCHAR
STARTCHAR charD7
ENCODING 215
SWIDTH 455 0
DWIDTH 5 0
BBX 4 4 0 1
VVECTOR 2 9
SWIDTH1 0 -1000
DWIDTH1 0 -11
BITMAP 
90
60
60
90
ENDCHAR
STARTCHAR charD8
ENCODING 216
SWIDTH 727 0
DWIDTH 8 0
BBX 7 7 0 0
VVECTOR 3 9
SWIDTH1 0 -1000
DWIDTH1 0 -11
BITMAP 
3A
44
8A
92
A2
44
B8
ENDCHAR
STARTCHAR charD9
ENCODING 217
SWIDTH 545 0
DWIDTH 6 0
BBX 5 9 0 0
VVECTOR 2 9
SWIDTH1 0 -1000
DWIDTH1 0 -11
BITMAP 
20
10
00
88
88
88
88
88
70
ENDCHAR
STARTCHAR charDA
ENCODING 218
SWIDTH 545 0
DWIDTH 6 0
BBX 5 9 0 0
VVECTOR 2 9
SWIDTH1 0 -1000
DWIDTH1 0 -11
BITMAP 
10
20
00
88
88
88
88
88
70
ENDCHAR
STARTCHAR charDB
ENCODING 219
SWIDTH 545 0
DWIDTH 6 0
BBX 5 9 0 0
VVECTOR 2 9
SWIDTH1 0 -1000
DWIDTH1 0 -11
BITMAP 
20
50
00
88
88
88
88
88
70
ENDCHAR
STARTCHAR charDC
ENCODING 220
SWIDTH 545 0
DWIDTH 6 0
BBX 5 8 0 0
VVECTOR 2 9
SWIDTH1 0 -1000
DWIDTH1 0 -11
BITMAP 
50
00
88
88
88
88
88
70
ENDCHAR
STARTCHAR charDD
ENCODING 221
SWIDTH 545 0
DWIDTH 6 0
BBX 5 9 0 0
VVECTOR 2 9
SWIDTH1 0 -1000
DWIDTH1 0 -11
BITMAP 
10
20
00
88
88
70
20
20
20
ENDCHAR
STARTCHAR charDE
ENCODING 222
SWIDTH 545 0
DWIDTH 6 0
BBX 5 7 0 0
VVECTOR 2 9
SWIDTH1 0 -1000
DWIDTH1 0 -11
BITMAP 
80
F0
88
88
88
F0
80
ENDCHAR
STARTCHAR charDF
ENCODING 223
SWIDTH 545 0
DWIDTH 6 0
BBX 5 7 0 0
VVECTOR 2 9
SWIDTH1 0 -1000
DWIDTH1 0 -11
BITMAP 
60
90
90
B0
88
88
B0
ENDCHAR
STARTCHAR charE0
ENCODING 224
SWIDTH 455 0
DWIDTH 5 0
BBX 4 8 0 0
VVECTOR 2 9
SWIDTH1 0 -1000
DWIDTH1 0 -11
BITMAP 
20
10
00
70
90
90
90
70
ENDCHAR
STARTCHAR charE1
ENCODING 225
SWIDTH 455 0
DWIDTH 5 0
BBX 4 8 0 0
VVECTOR 2 9
SWIDTH1 0 -1000
DWIDTH1 0 -11
BITMAP 
10
20
00
70
90
90
90
70
ENDCHAR
STARTCHAR charE2
ENCODING 226
SWIDTH 455 0
DWIDTH 5 0
BBX 4 8 0 0
VVECTOR 2 9
SWIDTH1 0 -1000
DWIDTH1 0 -11
BITMAP 
20
50
00
70
90
90
90
70
ENDCHAR
STARTCHAR charE3
ENCODING 227
SWIDTH 455 0
DWIDTH 5 0
BBX 4 8 0 0
VVECTOR 2 9
SWIDTH1 0 -1000
DWIDTH1 0 -11
BITMAP 
50
A0
00
70
90
90
90
70
ENDCHAR
STARTCHAR charE4
ENCODING 228
SWIDTH 455 0
DWIDTH 5 0
BBX 4 7 0 0
VVECTOR 2 9
SWIDTH1 0 -1000
DWIDTH1 0 -11
BITMAP 
50
00
70
90
90
90
70
ENDCHAR
STARTCHAR charE5
ENCODING 229
SWIDTH 455 0
DWIDTH 5 0
BBX 4 9 0 0
VVECTOR 2 9
SWIDTH1 0 -1000
DWIDTH1 0 -11
BITMAP 
20
50
20
00
70
90
90
90
70
ENDCHAR
STARTCHAR charE6
ENCODING 230
SWIDTH 727 0
DWIDTH 8 0
BBX 7 5 0 0
VVECTOR 3 9
SWIDTH1 0 -1000
DWIDTH1 0 -11
BITMAP 
6C
12
7E
90
7E
ENDCHAR
STARTCHAR charE7
ENCODING 231
SWIDTH 364 0
DWIDTH 4 0
BBX 3 7 0 -2
VVECTOR 1 9
SWIDTH1 0 -1000
DWIDTH1 0 -11
BITMAP 
60
80
80
80
60
40
80
ENDCHAR
STARTCHAR charE8
ENCODING 232
SWIDTH 455 0
DWIDTH 5 0
BBX 4 8 0 0
VVECTOR 2 9
SWIDTH1 0 -1000
DWIDTH1 0 -11
BITMAP 
40
20
00
60
90
F0
80
70
ENDCHAR
STARTCHAR charE9
ENCODING 233
SWIDTH 455 0
DWIDTH 5 0
BBX 4 8 0 0
VVECTOR 2 9
SWIDTH1 0 -1000
DWIDTH1 0 -11
BITMAP 
20
40
00
60
90
F0
80
70
ENDCHAR
STARTCHAR charEA
ENCODING 234
SWIDTH 455 0
DWIDTH 5 0
BBX 4 8 0 0
VVECTOR 2 9
SWIDTH1 0 -1000
DWIDTH1 0 -11
BITMAP 
20
50
00
60
90
F0
80
70
ENDCHAR
STARTCHAR charEB
ENCODING 235
SWIDTH 455 0
DWIDTH 5 0
BBX 4 7 0 0
VVECTOR 2 9
SWIDTH1 0 -1000
DWIDTH1 0 -11
BITMAP 
50
00
60
90
F0
80
70
ENDCHAR
STARTCHAR charEC
ENCODING 236
SWIDTH 182 0
DWIDTH 2 0
BBX 2 8 0 0
VVECTOR 1 9
SWIDTH1 0 -1000
DWIDTH1 0 -11
BITMAP 
80
40
00
80
80
80
80
80
ENDCHAR
STARTCHAR charED
ENCODING 237
SWIDTH 182 0
DWIDTH 2 0
BBX 2 8 0 0
VVECTOR 1 9
SWIDTH1 0 -1000
DWIDTH1 0 -11
BITMAP 
40
80
00
80
80
80
80
80
ENDCHAR
STARTCHAR charEE
ENCODING 238
SWIDTH 273 0
DWIDTH 3 0
BBX 3 8 0 0
VVECTOR 2 9
SWIDTH1 0 -1000
DWIDTH1 0 -11
BITMAP 
40
A0
00
40
40
40
40
40
ENDCHAR
STARTCHAR charEF
ENCODING 239
SWIDTH 273 0
DWIDTH 3 0
BBX 3 8 0 0
VVECTOR 2 9
SWIDTH1 0 -1000
DWIDTH1 0 -11
BITMAP 
A0
00
00
40
40
40
40
40
ENDCHAR
STARTCHAR charF0
ENCODING 240
SWIDTH 455 0
DWIDTH 5 0
BBX 4 7 0 0
VVECTOR 2 9
SWIDTH1 0 -1000
DWIDTH1 0 -11
BITMAP 
C0
C0
20
60
90
90
60
ENDCHAR
STARTCHAR charF1
ENCODING 241
SWIDTH 455 0
DWIDTH 5 0
BBX 4 8 0 0
VVECTOR 2 9
SWIDTH1 0 -1000
DWIDTH1 0 -11
BITMAP 
50
A0
00
E0
90
90
90
90
ENDCHAR
STARTCHAR charF2
ENCODING 242
SWIDTH 455 0
DWIDTH 5 0
BBX 4 8 0 0
VVECTOR 2 9
SWIDTH1 0 -1000
DWIDTH1 0 -11
BITMAP 
40
20
00
60
90
90
90
60
ENDCHAR
STARTCHAR charF3
ENCODING 243
SWIDTH 455 0
DWIDTH 5 0
BBX 4 8 0 0
VVECTOR 2 9
SWIDTH1 0 -1000
DWIDTH1 0 -11
BITMAP 
20
40
00
60
90
90
90
60
ENDCHAR
STARTCHAR charF4
ENCODING 244
SWIDTH 455 0
DWIDTH 5 0
BBX 4 8 0 0
VVECTOR 2 9
SWIDTH1 0 -1000
DWIDTH1 0 -11
BITMAP 
20
50
00
60
90
90
90
60
ENDCHAR
STARTCHAR charF5
ENCODING 245
SWIDTH 455 0
DWIDTH 5 0
BBX 4 8 0 0
VVECTOR 2 9
SWIDTH1 0 -1000
DWIDTH1 0 -11
BITMAP 
50
A0
00
60
90
90
90
60
ENDCHAR
STARTCHAR charF6
ENCODING 246
SWIDTH 455 0
DWIDTH 5 0
BBX 4 7 0 0
VVECTOR 2 9
SWIDTH1 0 -1000
DWIDTH1 0 -11
BITMAP 
50
00
60
90
90
90
60
ENDCHAR
STARTCHAR charF7
ENCODING 247
SWIDTH 545 0
DWIDTH 6 0
BBX 5 5 0 0
VVECTOR 2 9
SWIDTH1 0 -1000
DWIDTH1 0 -11
BITMAP 
20
00
F8
00
20
ENDCHAR
STARTCHAR charF8
ENCODING 248
SWIDTH 636 0
DWIDTH 7 0
BBX 6 5 0 0
VVECTOR 3 9
SWIDTH1 0 -1000
DWIDTH1 0 -11
BITMAP 
34
58
68
48
B0
ENDCHAR
STARTCHAR charF9
ENCODING 249
SWIDTH 455 0
DWIDTH 5 0
BBX 4 8 0 0
VVECTOR 2 9
SWIDTH1 0 -1000
DWIDTH1 0 -11
BITMAP 
40
20
00
90
90
90
90
70
ENDCHAR
STARTCHAR charFA
ENCODING 250
SWIDTH 455 0
DWIDTH 5 0
BBX 4 8 0 0
VVECTOR 2 9
SWIDTH1 0 -1000
DWIDTH1 0 -11
BITMAP 
20
40
00
90
90
90
90
70
ENDCHAR
STARTCHAR charFB
ENCODING 251
SWIDTH 455 0
DWIDTH 5 0
BBX 4 8 0 0
VVECTOR 2 9
SWIDTH1 0 -1000
DWIDTH1 0 -11
BITMAP 
20
50
00
90
90
90
90
70
ENDCHAR
STARTCHAR charFC
ENCODING 252
SWIDTH 455 0
DWIDTH 5 0
BBX 4 7 0 0
VVECTOR 2 9
SWIDTH1 0 -1000
DWIDTH1 0 -11
BITMAP 
50
00
90
90
90
90
70
ENDCHAR
STARTCHAR charFD
ENCODING 253
SWIDTH 545 0
DWIDTH 6 0
BBX 5 10 0 -2
VVECTOR 2 9
SWIDTH1 0 -1000
DWIDTH1 0 -11
BITMAP 
10
20
00
88
50
50
20
20
40
80
ENDCHAR
STARTCHAR charFE
ENCODING 254
SWIDTH 455 0
DWIDTH 5 0
BBX 4 9 0 -2
VVECTOR 2 9
SWIDTH1 0 -1000
DWIDTH1 0 -11
BITMAP 
80
80
E0
90
90
90
E0
80
80
ENDCHAR
STARTCHAR charFF
ENCODING 255
SWIDTH 545 0
DWIDTH 6 0
BBX 5 9 0 -2
VVECTOR 2 9
SWIDTH1 0 -1000
DWIDTH1 0 -11
BITMAP 
50
00
88
50
50
20
20
40
80
ENDCHAR
STARTCHAR missing
ENCODING -1
SWIDTH 455 0
DWIDTH 5 0
BBX 5 8 0 0
VVECTOR 3 9
SWIDTH1 0 -1000
DWIDTH1 0 -11
BITMAP 
F8
88
88
88
88
88
88
F8
ENDCHAR
ENDFONT
